<svg width="1280" height="520" viewBox="0 0 1280 520" fill="none" xmlns="http://www.w3.org/2000/svg">
  <defs>
    <linearGradient id="bg" x1="0" y1="0" x2="1280" y2="520" gradientUnits="userSpaceOnUse">
      <stop offset="0" stop-color="#0b1020"/>
      <stop offset="0.55" stop-color="#101827"/>
      <stop offset="1" stop-color="#111111"/>
    </linearGradient>
    <linearGradient id="accent" x1="90" y1="82" x2="1160" y2="430" gradientUnits="userSpaceOnUse">
      <stop offset="0" stop-color="#22d3ee"/>
      <stop offset="0.48" stop-color="#34d399"/>
      <stop offset="1" stop-color="#f59e0b"/>
    </linearGradient>
    <filter id="glow" x="-30%" y="-30%" width="160%" height="160%">
      <feGaussianBlur stdDeviation="14" result="blur"/>
      <feColorMatrix in="blur" type="matrix" values="0 0 0 0 0.10 0 0 0 0 0.83 0 0 0 0 0.79 0 0 0 0.38 0"/>
      <feBlend in="SourceGraphic"/>
    </filter>
    <pattern id="grid" width="36" height="36" patternUnits="userSpaceOnUse">
      <path d="M 36 0 L 0 0 0 36" stroke="#263244" stroke-width="1" opacity="0.55"/>
    </pattern>
  </defs>

  <rect width="1280" height="520" rx="28" fill="url(#bg)"/>
  <rect width="1280" height="520" rx="28" fill="url(#grid)" opacity="0.55"/>
  <path d="M76 388 C238 252 320 458 472 308 C626 154 716 334 852 210 C1010 66 1114 146 1210 88" stroke="url(#accent)" stroke-width="3" opacity="0.62" filter="url(#glow)"/>

  <rect x="64" y="58" width="1152" height="404" rx="22" fill="#0f172a" fill-opacity="0.72" stroke="#263244"/>
  <rect x="88" y="84" width="236" height="38" rx="19" fill="#0b1220" stroke="#1f2937"/>
  <circle cx="112" cy="103" r="6" fill="#ef4444"/>
  <circle cx="134" cy="103" r="6" fill="#f59e0b"/>
  <circle cx="156" cy="103" r="6" fill="#22c55e"/>
  <text x="184" y="109" fill="#94a3b8" font-family="SFMono-Regular, Menlo, Consolas, monospace" font-size="15" font-weight="700">ops-command-center</text>

  <text x="88" y="184" fill="#f8fafc" font-family="Inter, Segoe UI, Arial, sans-serif" font-size="56" font-weight="900">Marwen Ben Khemis</text>
  <text x="90" y="228" fill="#67e8f9" font-family="SFMono-Regular, Menlo, Consolas, monospace" font-size="20" font-weight="800">operational systems engineer</text>
  <text x="90" y="270" fill="#cbd5e1" font-family="Inter, Segoe UI, Arial, sans-serif" font-size="22" font-weight="600">AI workflows, role-centered UX, offline retail, hardware edges, reliability, and typed contracts.</text>

  <g font-family="SFMono-Regular, Menlo, Consolas, monospace" font-size="17" font-weight="750">
    <rect x="90" y="322" width="154" height="52" rx="12" fill="#07111f" stroke="#22d3ee"/>
    <text x="116" y="354" fill="#e0f2fe">extract</text>
    <path d="M254 348 H311" stroke="#64748b" stroke-width="3"/>
    <path d="M300 337 L313 348 L300 359" stroke="#64748b" stroke-width="3" fill="none"/>

    <rect x="324" y="322" width="154" height="52" rx="12" fill="#07111f" stroke="#34d399"/>
    <text x="350" y="354" fill="#dcfce7">review</text>
    <path d="M488 348 H545" stroke="#64748b" stroke-width="3"/>
    <path d="M534 337 L547 348 L534 359" stroke="#64748b" stroke-width="3" fill="none"/>

    <rect x="558" y="322" width="154" height="52" rx="12" fill="#07111f" stroke="#a78bfa"/>
    <text x="584" y="354" fill="#ede9fe">typed state</text>
    <path d="M722 348 H779" stroke="#64748b" stroke-width="3"/>
    <path d="M768 337 L781 348 L768 359" stroke="#64748b" stroke-width="3" fill="none"/>

    <rect x="792" y="322" width="154" height="52" rx="12" fill="#07111f" stroke="#f59e0b"/>
    <text x="818" y="354" fill="#ffedd5">event log</text>
    <path d="M956 348 H1013" stroke="#64748b" stroke-width="3"/>
    <path d="M1002 337 L1015 348 L1002 359" stroke="#64748b" stroke-width="3" fill="none"/>

    <rect x="1026" y="322" width="164" height="52" rx="12" fill="#07111f" stroke="#38bdf8"/>
    <text x="1048" y="354" fill="#e0f2fe">workspace</text>
  </g>

  <g font-family="Inter, Segoe UI, Arial, sans-serif" font-size="15" font-weight="800">
    <rect x="90" y="406" width="152" height="34" rx="17" fill="#0e7490" fill-opacity="0.2" stroke="#155e75"/>
    <text x="112" y="428" fill="#a5f3fc">bounded AI</text>
    <rect x="258" y="406" width="180" height="34" rx="17" fill="#047857" fill-opacity="0.2" stroke="#065f46"/>
    <text x="280" y="428" fill="#bbf7d0">role-centered UX</text>
    <rect x="454" y="406" width="148" height="34" rx="17" fill="#6d28d9" fill-opacity="0.2" stroke="#5b21b6"/>
    <text x="476" y="428" fill="#ddd6fe">offline edge</text>
    <rect x="618" y="406" width="176" height="34" rx="17" fill="#b45309" fill-opacity="0.2" stroke="#92400e"/>
    <text x="640" y="428" fill="#fed7aa">reliability loops</text>
  </g>
</svg>
